P1
# Un exemple bitmap de la lettre "J"
7 10
0 0 0 0 0 0 0
0 0 0 0 0 1 0
0 0 0 0 0 1 0
0 0 0 0 0 1 0
0 0 0 0 0 1 0
0 0 0 0 0 1 0
0 0 0 0 0 1 0
0 1 0 0 0 1 0
0 0 1 1 1 0 0
0 0 0 0 0 0 0